<svg width="478" height="479" viewBox="0 0 478 479" fill="none" xmlns="http://www.w3.org/2000/svg">
<path d="M30.2883 0C10.9083 0.81 -0.305657 11.357 0.00634256 30.283L19.7743 61.063C24.2043 59.85 29.1343 57.225 34.0223 53.728L76.4963 113.663C59.4783 134.493 45.2383 158.103 33.7863 184.499L60.3363 211.051C71.6113 187.451 84.9703 166.225 100.254 147.187L311.074 444.662L477.881 477.875L444.668 311.067L147.118 100.192C167.025 84.084 188.96 70.282 212.77 58.614L186.217 32.064C159.011 43.867 134.775 58.64 113.482 76.356L53.7283 34.007C57.1713 29.184 59.7903 24.272 61.0703 19.765L30.2903 0H30.2883ZM431.128 86.933V86.941L431.131 86.933H431.128ZM431.128 86.941L403.1 211.911L377.984 131.318L359.879 201.985L333.017 152.345L332.433 210.163L460.917 301.853L476.101 388.87L474.933 201.985L440.476 241.698L431.13 86.942L431.128 86.941ZM130.178 114.921L352.402 311.289L378.047 378.039L311.297 352.394L114.938 130.181C119.838 124.918 124.921 119.828 130.176 114.921H130.178ZM162.483 311.195V311.199H162.488L162.483 311.195ZM162.488 311.199L190.516 333.974L154.306 338.062L212.126 357.334L106.42 361.424L221.47 388.874L120.438 407.561L247.754 433.257L180.59 477.06L389.084 478.812L302.067 463.627L197.527 312.951L162.49 311.199H162.488Z" fill="white"/>
</svg>
